<svg width="42" height="36" viewBox="0 0 42 36" fill="none" xmlns="http://www.w3.org/2000/svg">
<path d="M4.09092 17.2996C7.37132 24.5938 20.6045 29.638 20.6045 29.638C20.6045 29.638 25.6116 16.3907 22.3312 9.09646C20.071 4.07067 14.159 1.83545 9.12016 4.10156C4.08127 6.36768 1.83069 12.2738 4.09092 17.2996Z" fill="#FF36A1"/>
<ellipse opacity="0.4" cx="4" cy="2" rx="4" ry="2" transform="matrix(-1 0 0 1 24.7247 31.8698)" fill="#444444"/>
<path d="M21.3447 29.638L20.8764 29.815C20.9234 29.9393 21.0185 30.0395 21.1396 30.094C21.2608 30.1485 21.3989 30.1531 21.523 30.1058L21.3447 29.638ZM21.3447 29.638L21.5234 30.1049L21.5337 30.101C21.5406 30.0983 21.5508 30.0939 21.5638 30.0888C21.59 30.0787 21.6285 30.0637 21.6783 30.0439C21.7781 30.0044 21.924 29.9458 22.1104 29.8688C22.4832 29.7147 23.0185 29.4871 23.6701 29.1911C24.9729 28.5993 26.7461 27.733 28.6238 26.6358C32.3489 24.459 36.6043 21.307 38.3145 17.5043C40.6882 12.2256 38.3237 6.02438 33.0342 3.64556C27.7447 1.26674 21.5363 3.61252 19.1622 8.89103C17.452 12.6937 17.9176 17.9689 18.7608 22.2001C19.1859 24.333 19.7143 26.2343 20.136 27.6018C20.347 28.2857 20.5318 28.8371 20.664 29.2183C20.73 29.4088 20.783 29.5569 20.8197 29.6578C20.838 29.7082 20.8523 29.7469 20.862 29.7732C20.8669 29.7864 20.8703 29.7969 20.8729 29.8038L20.8768 29.8141L21.3447 29.638Z" fill="#FF36A1" stroke="white" stroke-linejoin="round"/>
<circle cx="28.7275" cy="13.2217" r="5" transform="rotate(24.2147 28.7275 13.2217)" fill="white"/>
</svg>
